<svg xmlns="http://www.w3.org/2000/svg" viewBox="0 0 1400 760" fill="none" role="img" aria-labelledby="title desc">
  <title id="title">PanguWeather chunking and access path</title>
  <desc id="desc">Diagram showing multiple ranks reading time-indexed HDF5 files and why storage layout should align with access patterns to avoid read amplification.</desc>
  <rect width="1400" height="760" rx="28" fill="#F8F5EF"/>
  <rect x="28" y="28" width="1344" height="704" rx="22" fill="#FFFCF8" stroke="#D9D2C6" stroke-width="2"/>
  <text x="72" y="90" fill="#1C2430" font-family="IBM Plex Sans, Arial, sans-serif" font-size="36" font-weight="700">Where Chunking and I/O Start to Matter</text>
  <text x="72" y="128" fill="#546170" font-family="IBM Plex Sans, Arial, sans-serif" font-size="19">Each rank resolves a timestamp, opens a file, reads selected variables, and steps forward. DDP multiplies concurrent readers.</text>

  <text x="82" y="196" fill="#264B78" font-family="IBM Plex Sans, Arial, sans-serif" font-size="24" font-weight="700">Multifile HDF5 training access (one file per time step)</text>
  <rect x="82" y="218" width="260" height="68" rx="18" fill="#EEF3F7" stroke="#C7D0D8" stroke-width="2"/>
  <text x="117" y="260" fill="#17344D" font-family="IBM Plex Mono, monospace" font-size="26">12_0000.h5</text>
  <rect x="82" y="298" width="260" height="68" rx="18" fill="#EEF3F7" stroke="#C7D0D8" stroke-width="2"/>
  <text x="117" y="340" fill="#17344D" font-family="IBM Plex Mono, monospace" font-size="26">12_0001.h5</text>
  <rect x="82" y="378" width="260" height="68" rx="18" fill="#EEF3F7" stroke="#C7D0D8" stroke-width="2"/>
  <text x="117" y="420" fill="#17344D" font-family="IBM Plex Mono, monospace" font-size="26">12_0002.h5</text>
  <rect x="82" y="458" width="260" height="68" rx="18" fill="#EEF3F7" stroke="#C7D0D8" stroke-width="2"/>
  <text x="117" y="500" fill="#17344D" font-family="IBM Plex Mono, monospace" font-size="26">12_0003.h5</text>

  <g stroke="#8BA4BC" stroke-width="4" stroke-linecap="round">
    <path d="M342 252H455"/>
    <path d="M342 332H455"/>
    <path d="M342 412H455"/>
    <path d="M342 492H455"/>
  </g>

  <g>
    <rect x="455" y="210" width="218" height="108" rx="18" fill="#FFFFFF" stroke="#CFD8E3" stroke-width="2"/>
    <text x="488" y="248" fill="#1C395B" font-family="IBM Plex Sans, Arial, sans-serif" font-size="22" font-weight="700">Rank 0</text>
    <text x="488" y="278" fill="#46515F" font-family="IBM Plex Sans, Arial, sans-serif" font-size="17">read input at t</text>
    <text x="488" y="300" fill="#46515F" font-family="IBM Plex Sans, Arial, sans-serif" font-size="17">read target at t+Δt</text>
  </g>
  <g>
    <rect x="455" y="330" width="218" height="108" rx="18" fill="#FFFFFF" stroke="#CFD8E3" stroke-width="2"/>
    <text x="488" y="368" fill="#1C395B" font-family="IBM Plex Sans, Arial, sans-serif" font-size="22" font-weight="700">Rank 1</text>
    <text x="488" y="398" fill="#46515F" font-family="IBM Plex Sans, Arial, sans-serif" font-size="17">read input at t</text>
    <text x="488" y="420" fill="#46515F" font-family="IBM Plex Sans, Arial, sans-serif" font-size="17">read target at t+Δt</text>
  </g>
  <g>
    <rect x="455" y="450" width="218" height="108" rx="18" fill="#FFFFFF" stroke="#CFD8E3" stroke-width="2"/>
    <text x="488" y="488" fill="#1C395B" font-family="IBM Plex Sans, Arial, sans-serif" font-size="22" font-weight="700">Rank 2+</text>
    <text x="488" y="520" fill="#46515F" font-family="IBM Plex Sans, Arial, sans-serif" font-size="17">same pattern,</text>
    <text x="488" y="542" fill="#46515F" font-family="IBM Plex Sans, Arial, sans-serif" font-size="17">more readers</text>
  </g>

  <!-- Poor storage match -->
  <rect x="732" y="170" width="598" height="222" rx="24" fill="#FFF6E8" stroke="#D6C5A7" stroke-width="2"/>
  <text x="768" y="212" fill="#6F5A42" font-family="IBM Plex Sans, Arial, sans-serif" font-size="24" font-weight="700">Poor storage match</text>
  <text x="768" y="244" fill="#6F5A42" font-family="IBM Plex Sans, Arial, sans-serif" font-size="17">Chunks or file layout force each rank to read</text>
  <text x="768" y="266" fill="#6F5A42" font-family="IBM Plex Sans, Arial, sans-serif" font-size="17">more data than needed for the current time</text>
  <text x="768" y="288" fill="#6F5A42" font-family="IBM Plex Sans, Arial, sans-serif" font-size="17">step and variable subset → read amplification.</text>
  <g transform="translate(988 196)">
    <rect x="0" y="0" width="310" height="168" rx="18" fill="#FFFDF7" stroke="#D7CCB6" stroke-width="2"/>
    <path d="M30 30H280M30 60H280M30 90H280M30 120H280M30 150H280" stroke="#D0C5AF" stroke-width="2"/>
    <path d="M80 18V162M130 18V162M180 18V162M230 18V162M280 18V162" stroke="#D0C5AF" stroke-width="2"/>
    <rect x="18" y="20" width="274" height="28" fill="#EAB0B0" fill-opacity="0.65"/>
    <rect x="18" y="50" width="274" height="28" fill="#EAB0B0" fill-opacity="0.65"/>
    <text x="18" y="158" fill="#7D5D63" font-family="IBM Plex Sans, Arial, sans-serif" font-size="16">many extra cells touched per read</text>
  </g>

  <!-- Better access-aligned layout -->
  <rect x="732" y="412" width="598" height="226" rx="24" fill="#E8F1EA" stroke="#C0D4C3" stroke-width="2"/>
  <text x="768" y="452" fill="#355E3B" font-family="IBM Plex Sans, Arial, sans-serif" font-size="24" font-weight="700">Better: access-aligned layout</text>
  <text x="768" y="482" fill="#355E3B" font-family="IBM Plex Sans, Arial, sans-serif" font-size="17">Store along axes the workflow actually touches:</text>
  <text x="768" y="504" fill="#355E3B" font-family="IBM Plex Sans, Arial, sans-serif" font-size="17">time step, ensemble member, level, variable group.</text>
  <text x="768" y="528" fill="#355E3B" font-family="IBM Plex Sans, Arial, sans-serif" font-size="17">Chunk shape matches read pattern → far less I/O waste.</text>
  <g transform="translate(988 428)">
    <rect x="0" y="0" width="310" height="168" rx="18" fill="#F7FCF7" stroke="#BED2C0" stroke-width="2"/>
    <path d="M30 30H280M30 60H280M30 90H280M30 120H280M30 150H280" stroke="#C8DCC9" stroke-width="2"/>
    <path d="M80 18V162M130 18V162M180 18V162M230 18V162M280 18V162" stroke="#C8DCC9" stroke-width="2"/>
    <rect x="82" y="18" width="48" height="126" fill="#A7D2B0" fill-opacity="0.85"/>
    <text x="18" y="158" fill="#355E3B" font-family="IBM Plex Sans, Arial, sans-serif" font-size="16">reads only the needed column</text>
  </g>

  <!-- Bottom legend -->
  <text x="72" y="680" fill="#7A8A9A" font-family="IBM Plex Sans, Arial, sans-serif" font-size="15">HDF5 = Hierarchical Data Format 5 · I/O = input/output · DDP = Distributed Data Parallel · Δt = time step increment</text>
</svg>
